<svg width="62" height="10" viewBox="0 0 62 10" fill="none" xmlns="http://www.w3.org/2000/svg">
<path d="M5.844 6.3H2.052L1.224 9H0.36L2.532 1.98C2.708 1.412 2.896 1.02 3.096 0.804C3.304 0.58 3.588 0.468 3.948 0.468C4.308 0.468 4.592 0.58 4.8 0.804C5.008 1.02 5.2 1.412 5.376 1.98L7.548 9H6.672L5.844 6.3ZM5.64 5.628L4.524 1.992C4.436 1.72 4.352 1.532 4.272 1.428C4.192 1.324 4.084 1.272 3.948 1.272C3.82 1.272 3.716 1.324 3.636 1.428C3.556 1.532 3.472 1.72 3.384 1.992L2.268 5.628H5.64ZM9.79884 1.296H7.07484V0.599999H13.3868V1.296H10.6628V9H9.79884V1.296ZM16.8301 1.296H14.1061V0.599999H20.4181V1.296H17.6941V9H16.8301V1.296ZM24.059 9C23.123 9 22.427 8.796 21.971 8.388C21.523 7.972 21.299 7.34 21.299 6.492V3.108C21.299 2.26 21.523 1.632 21.971 1.224C22.427 0.808 23.123 0.599999 24.059 0.599999H26.951V1.296H24.059C23.411 1.296 22.931 1.444 22.619 1.74C22.315 2.036 22.163 2.492 22.163 3.108V4.452H26.339V5.148H22.163V6.492C22.163 7.108 22.315 7.564 22.619 7.86C22.931 8.156 23.411 8.304 24.059 8.304H27.023V9H24.059ZM35.1705 0.599999V7.752C35.1705 8.176 35.0825 8.492 34.9065 8.7C34.7305 8.9 34.4585 9 34.0905 9H33.4785L29.5305 1.896V9H28.7025V0.599999H29.7345L33.9345 8.244H34.0185C34.1385 8.244 34.2225 8.2 34.2705 8.112C34.3185 8.024 34.3425 7.868 34.3425 7.644V0.599999H35.1705ZM37.3041 0.599999H40.2921C41.1721 0.599999 41.8681 0.736 42.3801 1.008C42.9001 1.28 43.2761 1.72 43.5081 2.328C43.7401 2.936 43.8561 3.76 43.8561 4.8C43.8561 5.848 43.7401 6.676 43.5081 7.284C43.2841 7.884 42.9121 8.32 42.3921 8.592C41.8801 8.864 41.1801 9 40.2921 9H37.3041V0.599999ZM40.2921 8.304C40.9561 8.304 41.4841 8.192 41.8761 7.968C42.2681 7.736 42.5521 7.368 42.7281 6.864C42.9041 6.352 42.9921 5.668 42.9921 4.812C42.9921 3.956 42.9001 3.272 42.7161 2.76C42.5401 2.248 42.2561 1.876 41.8641 1.644C41.4721 1.412 40.9481 1.296 40.2921 1.296H38.1681V8.304H40.2921ZM45.7181 0.599999H46.5821V9H45.7181V0.599999ZM51.5588 9.132C51.2148 9.132 50.9348 9.016 50.7188 8.784C50.5108 8.552 50.3268 8.164 50.1668 7.62L48.0788 0.599999H48.9428L51.0188 7.608C51.0908 7.864 51.1668 8.048 51.2467 8.16C51.3348 8.272 51.4388 8.328 51.5588 8.328C51.6708 8.328 51.7668 8.276 51.8468 8.172C51.9268 8.06 52.0068 7.872 52.0868 7.608L54.1628 0.599999H55.0388L52.9508 7.62C52.7908 8.156 52.6028 8.544 52.3868 8.784C52.1708 9.016 51.8948 9.132 51.5588 9.132ZM58.6762 9C57.7402 9 57.0442 8.796 56.5882 8.388C56.1402 7.972 55.9162 7.34 55.9162 6.492V3.108C55.9162 2.26 56.1402 1.632 56.5882 1.224C57.0442 0.808 57.7402 0.599999 58.6762 0.599999H61.5682V1.296H58.6762C58.0282 1.296 57.5482 1.444 57.2362 1.74C56.9322 2.036 56.7802 2.492 56.7802 3.108V4.452H60.9562V5.148H56.7802V6.492C56.7802 7.108 56.9322 7.564 57.2362 7.86C57.5482 8.156 58.0282 8.304 58.6762 8.304H61.6402V9H58.6762Z" fill="black"/>
</svg>
